<svg
                    width="100%" viewBox="502 547 464 112" fill="none" xmlns="http://www.w3.org/2000/svg">
                    <path
                      d="M944.398 635.5V632.125H961.273V635.5H944.398ZM944.398 642.25V638.875H961.273V642.25H944.398ZM944.398 649V645.625H961.273V649H944.398Z"
                      fill="white" />
                    <path
                      d="M906.358 650.078C903.483 650.078 900.952 649.516 898.764 648.391C896.577 647.266 894.858 645.672 893.608 643.609C892.389 641.547 891.78 639.125 891.78 636.344C891.78 633.969 892.264 631.859 893.233 630.016C894.202 628.172 895.968 626.469 898.53 624.906C901.093 623.312 904.764 621.766 909.546 620.266C912.171 619.422 914.327 618.641 916.014 617.922C917.702 617.203 918.952 616.422 919.764 615.578C920.577 614.734 920.983 613.734 920.983 612.578C920.983 611.234 920.718 610.109 920.186 609.203C919.655 608.297 918.811 607.625 917.655 607.188C916.499 606.719 914.968 606.484 913.061 606.484C910.936 606.484 909.311 606.766 908.186 607.328C907.061 607.891 906.28 608.672 905.843 609.672C905.436 610.672 905.233 611.828 905.233 613.141V615.109H893.28V613.609C893.28 608.734 894.905 604.844 898.155 601.938C901.405 599.031 906.468 597.578 913.343 597.578C918.374 597.578 922.358 598.281 925.296 599.688C928.233 601.094 930.343 603.078 931.624 605.641C932.905 608.172 933.546 611.172 933.546 614.641V634.562C933.546 636.844 933.827 638.344 934.389 639.062C934.983 639.75 936.061 640.094 937.624 640.094L937.108 649.375H934.436C930.936 649.375 928.218 648.891 926.28 647.922C924.343 646.953 922.921 645.453 922.014 643.422C921.108 644.609 919.889 645.719 918.358 646.75C916.858 647.75 915.093 648.547 913.061 649.141C911.061 649.766 908.827 650.078 906.358 650.078ZM910.624 641.594C911.655 641.594 912.827 641.406 914.139 641.031C915.452 640.625 916.718 640.031 917.936 639.25C919.186 638.469 920.202 637.469 920.983 636.25V623.5C920.139 624.188 918.796 624.953 916.952 625.797C915.108 626.609 913.124 627.406 910.999 628.188C908.218 629.219 906.389 630.359 905.514 631.609C904.639 632.859 904.202 634.203 904.202 635.641C904.202 637.672 904.796 639.172 905.983 640.141C907.171 641.109 908.718 641.594 910.624 641.594Z"
                      fill="white" />
                    <path
                      d="M836.209 598.656H848.959V603.109C850.896 601.453 853.037 600.109 855.381 599.078C857.724 598.047 860.724 597.531 864.381 597.531C868.162 597.531 871.224 598.234 873.568 599.641C875.912 601.016 877.631 602.859 878.724 605.172C879.818 607.484 880.365 610.062 880.365 612.906V649H867.615V613.609C867.615 611.828 867.146 610.469 866.209 609.531C865.302 608.594 864.162 607.953 862.787 607.609C861.443 607.266 860.099 607.094 858.756 607.094C857.224 607.094 855.709 607.375 854.209 607.938C852.709 608.5 851.459 609.328 850.459 610.422C849.459 611.516 848.959 612.891 848.959 614.547V649H836.209V598.656Z"
                      fill="white" />
                    <path
                      d="M811.106 598.656H823.809V649H811.106V598.656ZM811.013 590.406V577.984H823.856V590.406H811.013Z"
                      fill="white" />
                    <path
                      d="M771.051 650.078C768.176 650.078 765.644 649.516 763.457 648.391C761.269 647.266 759.551 645.672 758.301 643.609C757.082 641.547 756.473 639.125 756.473 636.344C756.473 633.969 756.957 631.859 757.926 630.016C758.894 628.172 760.66 626.469 763.223 624.906C765.785 623.312 769.457 621.766 774.238 620.266C776.863 619.422 779.019 618.641 780.707 617.922C782.394 617.203 783.644 616.422 784.457 615.578C785.269 614.734 785.676 613.734 785.676 612.578C785.676 611.234 785.41 610.109 784.879 609.203C784.348 608.297 783.504 607.625 782.348 607.188C781.191 606.719 779.66 606.484 777.754 606.484C775.629 606.484 774.004 606.766 772.879 607.328C771.754 607.891 770.973 608.672 770.535 609.672C770.129 610.672 769.926 611.828 769.926 613.141V615.109H757.973V613.609C757.973 608.734 759.598 604.844 762.848 601.938C766.098 599.031 771.16 597.578 778.035 597.578C783.066 597.578 787.051 598.281 789.988 599.688C792.926 601.094 795.035 603.078 796.316 605.641C797.598 608.172 798.238 611.172 798.238 614.641V634.562C798.238 636.844 798.519 638.344 799.082 639.062C799.676 639.75 800.754 640.094 802.316 640.094L801.801 649.375H799.129C795.629 649.375 792.91 648.891 790.973 647.922C789.035 646.953 787.613 645.453 786.707 643.422C785.801 644.609 784.582 645.719 783.051 646.75C781.551 647.75 779.785 648.547 777.754 649.141C775.754 649.766 773.519 650.078 771.051 650.078ZM775.316 641.594C776.348 641.594 777.519 641.406 778.832 641.031C780.144 640.625 781.41 640.031 782.629 639.25C783.879 638.469 784.894 637.469 785.676 636.25V623.5C784.832 624.188 783.488 624.953 781.644 625.797C779.801 626.609 777.816 627.406 775.691 628.188C772.91 629.219 771.082 630.359 770.207 631.609C769.332 632.859 768.894 634.203 768.894 635.641C768.894 637.672 769.488 639.172 770.676 640.141C771.863 641.109 773.41 641.594 775.316 641.594Z"
                      fill="white" />
                    <path
                      d="M692.973 651.976C692.397 653.128 691.565 653.832 690.477 654.088C689.453 654.408 688.429 654.376 687.405 653.992C686.445 653.608 685.677 652.936 685.101 651.976C684.525 651.08 684.365 650.024 684.621 648.808L692.781 614.344C691.373 615.944 689.901 617.608 688.365 619.336C686.893 621 685.357 622.728 683.757 624.52C682.733 625.608 681.645 626.12 680.493 626.056C679.341 625.992 678.349 625.544 677.517 624.712C676.621 623.88 676.077 622.888 675.885 621.736C675.693 620.52 676.077 619.4 677.037 618.376C681.005 614.088 684.717 609.864 688.173 605.704C691.693 601.48 694.829 597.576 697.581 593.992C698.989 588.68 700.557 583.496 702.285 578.44C704.077 573.32 705.965 568.776 707.949 564.808C709.933 560.776 711.949 557.704 713.997 555.592C716.109 553.48 718.157 552.776 720.141 553.48C721.933 554.056 723.053 555.24 723.501 557.032C723.949 558.76 723.949 560.808 723.501 563.176C723.053 565.544 722.317 568.04 721.293 570.664C720.333 573.288 719.277 575.784 718.125 578.152C717.037 580.456 716.045 582.44 715.149 584.104C713.037 588.008 710.029 592.584 706.125 597.832L704.973 602.728L701.325 618.088C701.837 617.32 702.349 616.584 702.861 615.88C703.437 615.112 704.045 614.376 704.685 613.672C707.757 609.96 711.085 606.952 714.669 604.648C718.317 602.28 722.221 601.096 726.381 601.096C730.029 601.096 732.845 601.896 734.829 603.496C736.813 605.096 738.093 607.144 738.669 609.64C739.245 612.136 739.181 614.792 738.477 617.608C737.773 620.424 736.525 623.08 734.733 625.576C732.941 628.008 730.893 630.152 728.589 632.008C726.349 633.864 723.981 635.24 721.485 636.136C722.573 638.568 723.693 640.168 724.845 640.936C725.997 641.64 727.469 641.992 729.261 641.992C730.477 641.992 731.661 641.736 732.813 641.224C734.029 640.712 735.437 639.72 737.037 638.248C738.701 636.776 740.781 634.6 743.277 631.72C744.301 630.568 745.389 630.024 746.541 630.088C747.693 630.152 748.717 630.6 749.613 631.432C750.509 632.2 751.053 633.16 751.245 634.312C751.437 635.464 751.085 636.584 750.189 637.672C746.477 641.96 743.053 645.256 739.917 647.56C736.781 649.864 733.229 651.016 729.261 651.016C726.317 651.016 723.757 650.344 721.581 649C719.405 647.72 717.549 646.056 716.013 644.008C714.541 641.896 713.293 639.656 712.269 637.288C710.093 636.904 708.557 636.072 707.661 634.792C706.829 633.512 706.477 632.136 706.605 630.664C706.797 629.128 707.341 627.816 708.237 626.728C709.197 625.64 710.413 625.096 711.885 625.096C713.037 625.096 714.093 625.384 715.053 625.96C716.013 626.472 716.813 627.08 717.453 627.784C719.117 627.144 720.845 626.184 722.637 624.904C724.429 623.56 725.965 621.992 727.245 620.2C729.165 617.576 730.189 615.56 730.317 614.152C730.509 612.68 730.189 611.656 729.357 611.08C728.525 610.44 727.533 610.12 726.381 610.12C724.333 610.12 721.997 610.888 719.373 612.424C716.813 613.896 714.221 616.232 711.597 619.432C709.357 622.12 707.341 625.032 705.549 628.168C703.757 631.24 701.901 634.696 699.981 638.536C698.061 642.376 695.725 646.856 692.973 651.976Z"
                      fill="white" />
                    <path
                      d="M644.252 650.078C641.033 650.078 638.252 649.438 635.908 648.156C633.596 646.875 631.799 645.125 630.518 642.906C629.268 640.688 628.643 638.172 628.643 635.359V598.656H641.393V633.297C641.393 635.047 641.83 636.453 642.705 637.516C643.58 638.547 644.674 639.297 645.986 639.766C647.299 640.234 648.611 640.469 649.924 640.469C651.486 640.469 653.033 640.203 654.564 639.672C656.096 639.141 657.361 638.297 658.361 637.141C659.393 635.984 659.908 634.469 659.908 632.594V598.656H672.658V649H660.658L660.283 643.469C659.283 645.562 657.236 647.188 654.143 648.344C651.049 649.5 647.752 650.078 644.252 650.078Z"
                      fill="white" />
                    <path
                      d="M594.821 650.078C589.54 650.078 585.29 649.422 582.071 648.109C578.884 646.766 576.571 644.875 575.134 642.438C573.696 640 572.977 637.109 572.977 633.766V613.938C572.977 610.5 573.837 607.562 575.556 605.125C577.274 602.688 579.759 600.828 583.009 599.547C586.29 598.234 590.227 597.578 594.821 597.578C599.415 597.578 603.337 598.234 606.587 599.547C609.837 600.828 612.321 602.688 614.04 605.125C615.79 607.562 616.665 610.5 616.665 613.938V633.766C616.665 637.078 615.977 639.969 614.602 642.438C613.227 644.875 610.946 646.766 607.759 648.109C604.602 649.422 600.29 650.078 594.821 650.078ZM594.821 641.219C597.54 641.219 599.727 640.719 601.384 639.719C603.071 638.688 603.915 636.891 603.915 634.328V613.375C603.915 610.812 603.118 609.031 601.524 608.031C599.931 607 597.696 606.484 594.821 606.484C592.071 606.484 589.868 607 588.212 608.031C586.556 609.031 585.727 610.812 585.727 613.375V634.328C585.727 636.891 586.509 638.688 588.071 639.719C589.634 640.719 591.884 641.219 594.821 641.219Z"
                      fill="white" />
                    <path
                      d="M513.984 645.625C511.609 643.094 509.859 640.219 508.734 637C507.609 633.75 507.047 630.75 507.047 628C507.047 625.25 507.188 623.703 507.469 623.359C507.781 623.016 508.125 622.719 508.5 622.469C509.156 622.031 509.953 621.688 510.891 621.438C513.453 628 518.188 632.219 525.094 634.094C527.312 634.719 529.547 635.031 531.797 635.031C534.078 635.031 536.094 634.844 537.844 634.469C539.625 634.062 541.172 633.438 542.484 632.594C545.328 630.719 546.75 627.891 546.75 624.109C546.75 621.234 545.609 618.031 543.328 614.5C542.359 612.938 541.312 611.391 540.188 609.859C539.062 608.297 538.016 606.719 537.047 605.125C534.766 601.469 533.625 598.344 533.625 595.75C533.625 593.125 533.984 590.953 534.703 589.234C535.453 587.484 536.469 585.922 537.75 584.547C539.031 583.141 540.531 581.906 542.25 580.844C544 579.781 545.891 578.891 547.922 578.172C551.984 576.734 556.297 576.016 560.859 576.016C565.172 576.016 568.562 576.469 571.031 577.375C573.5 578.25 575.25 579.156 576.281 580.094C577.344 581.031 577.875 581.953 577.875 582.859C577.875 583.766 577.734 584.531 577.453 585.156C577.172 585.75 576.812 586.344 576.375 586.938C575.438 588.156 574.516 589.078 573.609 589.703C571.453 586.266 567.859 583.844 562.828 582.438C561.203 582 559.484 581.781 557.672 581.781C555.891 581.781 554.109 582 552.328 582.438C550.547 582.875 548.984 583.5 547.641 584.312C544.609 586.062 543.094 588.344 543.094 591.156C543.094 592.688 543.625 594.219 544.688 595.75C545.781 597.281 547.125 598.875 548.719 600.531C550.344 602.188 552.094 603.922 553.969 605.734C555.844 607.547 557.578 609.484 559.172 611.547C562.953 616.359 564.844 621.109 564.844 625.797C564.844 630.453 563.969 634.5 562.219 637.938C560.469 641.344 558.109 644.188 555.141 646.469C549.203 651.125 541.719 653.453 532.688 653.453C525.062 653.453 518.828 650.844 513.984 645.625Z"
                      fill="white" />
                  </svg>